<?xml version="1.0" standalone="no"?>
<!DOCTYPE svg PUBLIC "-//W3C//DTD SVG 20010904//EN"
 "http://www.w3.org/TR/2001/REC-SVG-20010904/DTD/svg10.dtd">
<svg version="1.0" xmlns="http://www.w3.org/2000/svg"
 width="349.000000pt" height="349.000000pt" viewBox="0 0 349.000000 349.000000"
 preserveAspectRatio="xMidYMid meet">
<metadata>
Created by potrace 1.14, written by Peter Selinger 2001-2017
</metadata>
<g transform="translate(0.000000,349.000000) scale(0.100000,-0.100000)"
fill="#000000" stroke="none">
<path d="M1569 3066 c-2 -2 -35 -7 -74 -10 -57 -5 -174 -26 -275 -50 -146 -35
-349 -119 -480 -199 -367 -224 -599 -553 -649 -922 -10 -72 -7 -283 4 -345
101 -538 587 -972 1230 -1099 157 -31 169 -32 365 -36 195 -3 267 2 445 36 96
18 283 72 340 99 11 5 55 25 98 45 155 71 358 214 463 328 238 257 347 533
339 852 -10 408 -222 759 -615 1017 -209 136 -433 216 -770 273 -41 7 -415 17
-421 11z m355 -1077 c163 -36 253 -78 332 -154 84 -82 80 -137 -17 -216 -133
-109 -311 -160 -534 -154 -66 1 -131 6 -145 9 -14 3 -38 9 -53 11 -137 25
-307 126 -351 207 -26 49 -16 80 48 142 63 61 160 112 271 143 128 34 325 40
449 12z"/>
</g>
</svg>
